<svg viewBox="0 0 130 87" fill="none" xmlns="http://www.w3.org/2000/svg">
  <path
    d="M7.54688 74V70.3906L11.2969 69.6641V44.2578L7.54688 43.5078V39.875H21.8438C24.875 39.875 27.5391 40.5938 29.8359 42.0312C32.1328 43.4688 33.9219 45.4453 35.2031 47.9609C36.4844 50.4766 37.125 53.3594 37.125 56.6094V57.2891C37.125 60.4922 36.4922 63.3594 35.2266 65.8906C33.9766 68.4062 32.2188 70.3906 29.9531 71.8438C27.6875 73.2812 25.0391 74 22.0078 74H7.54688ZM17.2031 69.4531H21.7031C23.7031 69.4531 25.4062 68.9219 26.8125 67.8594C28.2344 66.7812 29.3203 65.3281 30.0703 63.5C30.8203 61.6562 31.1953 59.5859 31.1953 57.2891V56.5859C31.1953 54.2422 30.8203 52.1562 30.0703 50.3281C29.3203 48.5 28.2344 47.0625 26.8125 46.0156C25.4062 44.9688 23.7031 44.4453 21.7031 44.4453H17.2031V69.4531Z"
    fill="#979EE2"
  />
  <path
    d="M43.9805 64.2461C42.6914 64.2461 41.6875 63.9141 40.9688 63.25C40.25 62.5859 39.8906 61.6719 39.8906 60.5078C39.8906 59.3125 40.375 58.3438 41.3438 57.6016C42.3203 56.8594 43.7188 56.4883 45.5391 56.4883H47.4727V55.4219C47.4727 54.75 47.2695 54.2148 46.8633 53.8164C46.4648 53.418 45.8828 53.2188 45.1172 53.2188C44.6797 53.2188 44.293 53.2734 43.957 53.3828C43.6211 53.4844 43.3203 53.6328 43.0547 53.8281L42.7969 55.5391H40.6172L40.5938 52.4102C41.2109 51.9961 41.9023 51.6719 42.668 51.4375C43.4414 51.2031 44.2969 51.0859 45.2344 51.0859C46.8438 51.0859 48.1094 51.4648 49.0312 52.2227C49.9609 52.9805 50.4258 54.0586 50.4258 55.457V61.0469C50.4258 61.2188 50.4258 61.3867 50.4258 61.5508C50.4336 61.707 50.4453 61.8672 50.4609 62.0312L51.75 62.1953V64H47.8945C47.8164 63.7266 47.7422 63.4609 47.6719 63.2031C47.6094 62.9453 47.5625 62.6875 47.5312 62.4297C47.1094 62.9609 46.5977 63.3984 45.9961 63.7422C45.3945 64.0781 44.7227 64.2461 43.9805 64.2461ZM44.6484 61.9609C45.25 61.9609 45.8047 61.8242 46.3125 61.5508C46.8281 61.2695 47.2148 60.918 47.4727 60.4961V58.375H45.5039C44.6211 58.375 43.9531 58.582 43.5 58.9961C43.0547 59.4023 42.832 59.8789 42.832 60.4258C42.832 61.4492 43.4375 61.9609 44.6484 61.9609ZM57.7383 64.2227C56.6602 64.2227 55.8203 63.9219 55.2188 63.3203C54.6172 62.7109 54.3164 61.7422 54.3164 60.4141V53.4297H52.4648V51.3203H54.3164V48.2383H57.2578V51.3203H59.7656V53.4297H57.2578V60.4141C57.2578 60.9531 57.3672 61.3438 57.5859 61.5859C57.8125 61.8281 58.1172 61.9492 58.5 61.9492C58.7188 61.9492 58.9609 61.9336 59.2266 61.9023C59.5 61.8633 59.7227 61.8242 59.8945 61.7852L60.1875 63.8594C59.8516 63.9609 59.4609 64.0469 59.0156 64.1172C58.5703 64.1875 58.1445 64.2227 57.7383 64.2227ZM65.7539 64.2461C64.4648 64.2461 63.4609 63.9141 62.7422 63.25C62.0234 62.5859 61.6641 61.6719 61.6641 60.5078C61.6641 59.3125 62.1484 58.3438 63.1172 57.6016C64.0938 56.8594 65.4922 56.4883 67.3125 56.4883H69.2461V55.4219C69.2461 54.75 69.043 54.2148 68.6367 53.8164C68.2383 53.418 67.6562 53.2188 66.8906 53.2188C66.4531 53.2188 66.0664 53.2734 65.7305 53.3828C65.3945 53.4844 65.0938 53.6328 64.8281 53.8281L64.5703 55.5391H62.3906L62.3672 52.4102C62.9844 51.9961 63.6758 51.6719 64.4414 51.4375C65.2148 51.2031 66.0703 51.0859 67.0078 51.0859C68.6172 51.0859 69.8828 51.4648 70.8047 52.2227C71.7344 52.9805 72.1992 54.0586 72.1992 55.457V61.0469C72.1992 61.2188 72.1992 61.3867 72.1992 61.5508C72.207 61.707 72.2188 61.8672 72.2344 62.0312L73.5234 62.1953V64H69.668C69.5898 63.7266 69.5156 63.4609 69.4453 63.2031C69.3828 62.9453 69.3359 62.6875 69.3047 62.4297C68.8828 62.9609 68.3711 63.3984 67.7695 63.7422C67.168 64.0781 66.4961 64.2461 65.7539 64.2461ZM66.4219 61.9609C67.0234 61.9609 67.5781 61.8242 68.0859 61.5508C68.6016 61.2695 68.9883 60.918 69.2461 60.4961V58.375H67.2773C66.3945 58.375 65.7266 58.582 65.2734 58.9961C64.8281 59.4023 64.6055 59.8789 64.6055 60.4258C64.6055 61.4492 65.2109 61.9609 66.4219 61.9609Z"
    fill="#979EE2"
  />
  <path
    d="M40.3516 48V47.0977L41.2305 46.9219V42.7441L40.2988 42.5684V41.6602H42.707V46.9219L43.5801 47.0977V48H40.3516ZM41.1719 40.2246V38.8594H42.707V40.2246H41.1719ZM44.2129 48V47.0977L45.0918 46.9219V42.7441L44.166 42.5684V41.6602H46.4512L46.5273 42.5801C46.7383 42.252 47 41.998 47.3125 41.8184C47.6289 41.6348 47.9863 41.543 48.3848 41.543C49.0371 41.543 49.5449 41.7441 49.9082 42.1465C50.2715 42.5488 50.4531 43.1738 50.4531 44.0215V46.9219L51.332 47.0977V48H48.1504V47.0977L48.9766 46.9219V44.0332C48.9766 43.5527 48.8809 43.2129 48.6895 43.0137C48.498 42.8105 48.2129 42.709 47.834 42.709C47.5527 42.709 47.3047 42.7734 47.0898 42.9023C46.875 43.0273 46.7012 43.2031 46.5684 43.4297V46.9219L47.3711 47.0977V48H44.2129Z"
    fill="#979EE2"
  />
  <path
    d="M1.54688 50V46.3906L5.29688 45.6641V20.2578L1.54688 19.5078V15.875H15.8438C18.875 15.875 21.5391 16.5938 23.8359 18.0312C26.1328 19.4688 27.9219 21.4453 29.2031 23.9609C30.4844 26.4766 31.125 29.3594 31.125 32.6094V33.2891C31.125 36.4922 30.4922 39.3594 29.2266 41.8906C27.9766 44.4062 26.2188 46.3906 23.9531 47.8438C21.6875 49.2812 19.0391 50 16.0078 50H1.54688ZM11.2031 45.4531H15.7031C17.7031 45.4531 19.4062 44.9219 20.8125 43.8594C22.2344 42.7812 23.3203 41.3281 24.0703 39.5C24.8203 37.6562 25.1953 35.5859 25.1953 33.2891V32.5859C25.1953 30.2422 24.8203 28.1562 24.0703 26.3281C23.3203 24.5 22.2344 23.0625 20.8125 22.0156C19.4062 20.9688 17.7031 20.4453 15.7031 20.4453H11.2031V45.4531Z"
    fill="white"
  />
  <path
    d="M34.9375 37V35.1953L36.6836 34.8438V26.4883L34.832 26.1367V24.3203H39.4023L39.5547 25.9141L39.5781 26.1719C40.2578 24.7812 41.2422 24.0859 42.5312 24.0859C43.0156 24.0859 43.4492 24.1484 43.832 24.2734L43.4922 27.0039L41.8398 26.9102C41.3008 26.8789 40.8555 26.9844 40.5039 27.2266C40.1523 27.4688 39.8633 27.8047 39.6367 28.2344V34.8438L41.3945 35.1953V37H34.9375ZM50.7461 37.2461C49.543 37.2461 48.5 36.9805 47.6172 36.4492C46.7344 35.9102 46.0469 35.168 45.5547 34.2227C45.0703 33.2773 44.8281 32.1953 44.8281 30.9766V30.4844C44.8281 29.25 45.0664 28.1523 45.543 27.1914C46.0273 26.2227 46.6875 25.4648 47.5234 24.918C48.3672 24.3633 49.332 24.0859 50.418 24.0859C52.1289 24.0859 53.4297 24.5938 54.3203 25.6094C55.2188 26.625 55.668 28.0195 55.668 29.793V31.4805H47.8867L47.8633 31.5391C47.9102 32.5391 48.1992 33.3633 48.7305 34.0117C49.2617 34.6523 50.0195 34.9727 51.0039 34.9727C51.6914 34.9727 52.3164 34.8789 52.8789 34.6914C53.4414 34.5039 53.9648 34.2383 54.4492 33.8945L55.3633 35.7461C54.8633 36.1758 54.2266 36.5352 53.4531 36.8242C52.6875 37.1055 51.7852 37.2461 50.7461 37.2461ZM47.9336 29.4062H52.8438V29.1016C52.8438 28.2734 52.6484 27.6016 52.2578 27.0859C51.875 26.5703 51.2734 26.3125 50.4531 26.3125C49.7344 26.3125 49.1523 26.6016 48.707 27.1797C48.2695 27.7578 48 28.4805 47.8984 29.3477L47.9336 29.4062ZM61.5977 37.2461C60.3086 37.2461 59.3047 36.9141 58.5859 36.25C57.8672 35.5859 57.5078 34.6719 57.5078 33.5078C57.5078 32.3125 57.9922 31.3438 58.9609 30.6016C59.9375 29.8594 61.3359 29.4883 63.1562 29.4883H65.0898V28.4219C65.0898 27.75 64.8867 27.2148 64.4805 26.8164C64.082 26.418 63.5 26.2188 62.7344 26.2188C62.2969 26.2188 61.9102 26.2734 61.5742 26.3828C61.2383 26.4844 60.9375 26.6328 60.6719 26.8281L60.4141 28.5391H58.2344L58.2109 25.4102C58.8281 24.9961 59.5195 24.6719 60.2852 24.4375C61.0586 24.2031 61.9141 24.0859 62.8516 24.0859C64.4609 24.0859 65.7266 24.4648 66.6484 25.2227C67.5781 25.9805 68.043 27.0586 68.043 28.457V34.0469C68.043 34.2188 68.043 34.3867 68.043 34.5508C68.0508 34.707 68.0625 34.8672 68.0781 35.0312L69.3672 35.1953V37H65.5117C65.4336 36.7266 65.3594 36.4609 65.2891 36.2031C65.2266 35.9453 65.1797 35.6875 65.1484 35.4297C64.7266 35.9609 64.2148 36.3984 63.6133 36.7422C63.0117 37.0781 62.3398 37.2461 61.5977 37.2461ZM62.2656 34.9609C62.8672 34.9609 63.4219 34.8242 63.9297 34.5508C64.4453 34.2695 64.832 33.918 65.0898 33.4961V31.375H63.1211C62.2383 31.375 61.5703 31.582 61.1172 31.9961C60.6719 32.4023 60.4492 32.8789 60.4492 33.4258C60.4492 34.4492 61.0547 34.9609 62.2656 34.9609ZM70.7617 37V35.1953L72.5312 34.8438V26.4883L70.668 26.1367V24.3203H75.2383L75.3789 25.9844C75.7852 25.3828 76.3008 24.918 76.9258 24.5898C77.5508 24.2539 78.2734 24.0859 79.0938 24.0859C79.9219 24.0859 80.6289 24.2734 81.2148 24.6484C81.8086 25.0156 82.2578 25.5742 82.5625 26.3242C82.9531 25.6289 83.4648 25.082 84.0977 24.6836C84.7383 24.2852 85.4883 24.0859 86.3477 24.0859C87.6133 24.0859 88.6133 24.5195 89.3477 25.3867C90.082 26.2539 90.4492 27.5664 90.4492 29.3242V34.8438L92.2188 35.1953V37H85.832V35.1953L87.4961 34.8438V29.3008C87.4961 28.2383 87.3164 27.4922 86.957 27.0625C86.5977 26.6328 86.0703 26.418 85.375 26.418C84.7266 26.418 84.1914 26.625 83.7695 27.0391C83.3555 27.4453 83.0859 27.9727 82.9609 28.6211V34.8438L84.5664 35.1953V37H78.4141V35.1953L80.0195 34.8438V29.3008C80.0195 28.2773 79.8359 27.543 79.4688 27.0977C79.1016 26.6445 78.5703 26.418 77.875 26.418C77.2969 26.418 76.8086 26.5352 76.4102 26.7695C76.0195 27.0039 75.707 27.3359 75.4727 27.7656V34.8438L77.1367 35.1953V37H70.7617ZM93.5078 37V35.1953L95.2656 34.8438V26.4883L93.4023 26.1367V24.3203H98.2188V34.8438L99.9648 35.1953V37H93.5078ZM95.1484 21.4492V18.7188H98.2188V21.4492H95.1484ZM101.23 37V35.1953L102.988 34.8438V26.4883L101.137 26.1367V24.3203H105.707L105.859 26.1602C106.281 25.5039 106.805 24.9961 107.43 24.6367C108.062 24.2695 108.777 24.0859 109.574 24.0859C110.879 24.0859 111.895 24.4883 112.621 25.293C113.348 26.0977 113.711 27.3477 113.711 29.043V34.8438L115.469 35.1953V37H109.105V35.1953L110.758 34.8438V29.0664C110.758 28.1055 110.566 27.4258 110.184 27.0273C109.801 26.6211 109.23 26.418 108.473 26.418C107.91 26.418 107.414 26.5469 106.984 26.8047C106.555 27.0547 106.207 27.4062 105.941 27.8594V34.8438L107.547 35.1953V37H101.23ZM122.242 42.1211C121.617 42.1211 120.922 42.0352 120.156 41.8633C119.398 41.6992 118.73 41.4688 118.152 41.1719L118.762 39.0039C119.262 39.2383 119.812 39.4258 120.414 39.5664C121.016 39.707 121.586 39.7773 122.125 39.7773C123.094 39.7773 123.801 39.5078 124.246 38.9688C124.699 38.4375 124.926 37.6836 124.926 36.707V35.7109C124.121 36.7344 123.039 37.2461 121.68 37.2461C120.641 37.2461 119.75 36.9883 119.008 36.4727C118.266 35.957 117.695 35.2344 117.297 34.3047C116.906 33.375 116.711 32.2969 116.711 31.0703V30.8242C116.711 29.4805 116.906 28.3047 117.297 27.2969C117.695 26.2812 118.262 25.4922 118.996 24.9297C119.73 24.3672 120.613 24.0859 121.645 24.0859C122.418 24.0859 123.09 24.2461 123.66 24.5664C124.23 24.8789 124.715 25.3281 125.113 25.9141L125.336 24.3203H129.402V26.1367L127.879 26.4648V36.7188C127.879 38.375 127.383 39.6875 126.391 40.6562C125.398 41.6328 124.016 42.1211 122.242 42.1211ZM122.477 34.9141C123.578 34.9141 124.395 34.4414 124.926 33.4961V27.8477C124.668 27.4023 124.336 27.0547 123.93 26.8047C123.523 26.5469 123.043 26.418 122.488 26.418C121.52 26.418 120.805 26.8281 120.344 27.6484C119.891 28.4609 119.664 29.5195 119.664 30.8242V31.0703C119.664 32.2422 119.887 33.1758 120.332 33.8711C120.785 34.5664 121.5 34.9141 122.477 34.9141Z"
    fill="white"
  />
</svg>
